<svg width="875" height="529" viewBox="0 0 875 529" fill="none" xmlns="http://www.w3.org/2000/svg">
<path d="M126.36 197.78C126.36 204.02 124.8 209.74 121.68 214.94C118.733 220.14 114.66 224.3 109.46 227.42C104.26 230.54 98.4533 232.1 92.04 232.1H44.2C42.12 232.1 41.08 233.227 41.08 235.48V289.04C41.08 292.333 39.8667 295.193 37.44 297.62C35.1867 299.873 32.4133 301 29.12 301H22.1C18.8067 301 15.9467 299.873 13.52 297.62C11.2667 295.193 10.14 292.333 10.14 289.04V137.2C10.14 133.733 11.2667 130.873 13.52 128.62C15.9467 126.367 18.8067 125.24 22.1 125.24H92.04C98.4533 125.24 104.26 126.8 109.46 129.92C114.66 133.04 118.733 137.2 121.68 142.4C124.8 147.6 126.36 153.407 126.36 159.82V197.78ZM95.68 197.78V159.82C95.68 157.393 94.4667 156.18 92.04 156.18H44.2C42.12 156.18 41.08 157.307 41.08 159.56V197.78C41.08 200.033 42.12 201.16 44.2 201.16H92.04C94.4667 201.16 95.68 200.033 95.68 197.78Z" fill="white"/>
<path d="M455.4 233.6C455.4 239.867 453.2 245.2 448.8 249.6C444.533 253.867 439.333 256 433.2 256H405.4C399.267 256 394 253.867 389.6 249.6C385.2 245.2 383 239.867 383 233.6V174.8C383 170.667 384 166.933 386 163.6C388.133 160.133 390.867 157.4 394.2 155.4C397.533 153.4 401.267 152.4 405.4 152.4H433.2C437.333 152.4 441.067 153.4 444.4 155.4C447.733 157.4 450.4 160.133 452.4 163.6C454.4 166.933 455.4 170.667 455.4 174.8V185.2C455.4 187.733 454.533 189.933 452.8 191.8C451.067 193.533 448.933 194.4 446.4 194.4H440.8C438.267 194.4 436.133 193.533 434.4 191.8C432.667 189.933 431.8 187.733 431.8 185.2V179C431.8 178.2 431.467 177.533 430.8 177C430.267 176.467 429.667 176.2 429 176.2H409.6C408.933 176.2 408.267 176.467 407.6 177C407.067 177.533 406.8 178.2 406.8 179V229.8C406.8 230.467 407.067 231.067 407.6 231.6C408.267 232.133 408.933 232.4 409.6 232.4H429C429.667 232.4 430.267 232.133 430.8 231.6C431.467 231.067 431.8 230.467 431.8 229.8V223.6C431.8 221.067 432.667 218.933 434.4 217.2C436.133 215.333 438.267 214.4 440.8 214.4H446.4C448.933 214.4 451.067 215.333 452.8 217.2C454.533 218.933 455.4 221.067 455.4 223.6V233.6ZM543.272 250.4C541.805 254.133 539.072 256 535.072 256H527.672C525.005 256 522.672 255 520.672 253L497.272 227.2C497.139 226.933 496.805 226.867 496.272 227C495.872 227.133 495.672 227.467 495.672 228V246.8C495.672 249.333 494.739 251.533 492.872 253.4C491.139 255.133 489.005 256 486.472 256H480.872C478.339 256 476.139 255.133 474.272 253.4C472.539 251.533 471.672 249.333 471.672 246.8V130C471.672 127.333 472.539 125.133 474.272 123.4C476.139 121.667 478.339 120.8 480.872 120.8H486.472C489.005 120.8 491.139 121.667 492.872 123.4C494.739 125.133 495.672 127.333 495.672 130V180.6C495.672 181 495.872 181.333 496.272 181.6C496.805 181.733 497.139 181.6 497.272 181.2L518.472 158.2C520.205 156.2 522.405 155.2 525.072 155.2H532.472C536.339 155.2 539.139 157.067 540.872 160.8C541.539 162.4 541.739 164.133 541.472 166C541.205 167.733 540.472 169.2 539.272 170.4L510.272 202.4C509.739 202.933 509.472 203.6 509.472 204.4C509.472 205.067 509.739 205.6 510.272 206L541.672 240.6C542.872 241.933 543.605 243.533 543.872 245.4C544.272 247.133 544.072 248.8 543.272 250.4ZM630.791 196.6C630.791 200.6 629.791 204.333 627.791 207.8C625.791 211.133 623.124 213.867 619.791 216C616.457 218 612.724 219 608.591 219H584.991C584.324 219 583.657 219.267 582.991 219.8C582.457 220.2 582.191 220.733 582.191 221.4V229.8C582.191 230.467 582.457 231.067 582.991 231.6C583.657 232.133 584.324 232.4 584.991 232.4H608.591C611.124 232.4 613.257 233.267 614.991 235C616.857 236.733 617.791 238.933 617.791 241.6V246.8C617.791 249.333 616.857 251.533 614.991 253.4C613.257 255.133 611.124 256 608.591 256H580.791C574.657 256 569.391 253.867 564.991 249.6C560.591 245.2 558.391 239.867 558.391 233.6V174.8C558.391 170.667 559.391 166.933 561.391 163.6C563.524 160.267 566.257 157.6 569.591 155.6C572.924 153.467 576.657 152.4 580.791 152.4H608.591C612.724 152.4 616.457 153.467 619.791 155.6C623.124 157.6 625.791 160.267 627.791 163.6C629.791 166.933 630.791 170.667 630.791 174.8V196.6ZM607.191 192.6V179C607.191 178.2 606.857 177.533 606.191 177C605.657 176.467 605.057 176.2 604.391 176.2H584.991C584.324 176.2 583.657 176.467 582.991 177C582.457 177.533 582.191 178.2 582.191 179V192.6C582.191 193.133 582.457 193.667 582.991 194.2C583.657 194.733 584.324 195 584.991 195H604.391C605.057 195 605.657 194.733 606.191 194.2C606.857 193.667 607.191 193.133 607.191 192.6ZM706.463 246.8C706.463 249.333 705.596 251.533 703.863 253.4C702.129 255.133 699.996 256 697.463 256H669.463C663.329 256 658.063 253.867 653.663 249.6C649.396 245.2 647.263 239.867 647.263 233.6V130C647.263 127.333 648.129 125.133 649.863 123.4C651.596 121.667 653.729 120.8 656.263 120.8H661.863C664.396 120.8 666.529 121.667 668.263 123.4C670.129 125.133 671.063 127.333 671.063 130V150C671.063 151.6 671.929 152.4 673.663 152.4H697.463C699.996 152.4 702.129 153.333 703.863 155.2C705.596 156.933 706.463 159.133 706.463 161.8V167.2C706.463 169.467 705.596 171.6 703.863 173.6C701.863 175.333 699.729 176.2 697.463 176.2H673.663C671.929 176.2 671.063 177.133 671.063 179V229.8C671.063 231.533 671.929 232.4 673.663 232.4H697.463C699.996 232.4 702.129 233.267 703.863 235C705.596 236.733 706.463 238.933 706.463 241.6V246.8Z" fill="white"/>
<path d="M761 461.8C761 464.333 761.867 466.533 763.6 468.4C765.333 470.133 767.533 471 770.2 471H775.6C778.133 471 780.333 470.133 782.2 468.4C783.933 466.533 784.8 464.333 784.8 461.8V401.6C784.8 401.067 785.067 400.733 785.6 400.6C786 400.467 786.333 400.6 786.6 401L805.8 440.6C806.2 441.667 807.067 442.6 808.4 443.4C809.733 444.2 811 444.867 812.2 445.4C813.267 445.8 813.8 446 813.8 446C817.933 446 820.667 444.2 822 440.6L841.2 401C841.333 400.6 841.667 400.467 842.2 400.6C842.733 400.733 843 401.067 843 401.6V461.8C843 464.333 843.933 466.533 845.8 468.4C847.533 470.133 849.667 471 852.2 471H857.8C860.333 471 862.533 470.133 864.4 468.4C866.133 466.533 867 464.333 867 461.8V345C867 342.333 866.133 340.133 864.4 338.4C862.533 336.667 860.333 335.8 857.8 335.8H852C848.267 335.8 845.533 337.533 843.8 341C843.133 342.467 841.8 345.333 839.8 349.6C837.667 353.733 835.2 358.667 832.4 364.4C829.6 370.133 826.733 376.2 823.8 382.6C820.733 388.867 817.8 394.867 815 400.6C814.733 401.133 814.4 401.4 814 401.4C813.467 401.4 813.067 401.133 812.8 400.6L784.2 341C782.467 337.533 779.667 335.8 775.8 335.8H770.2C767.533 335.8 765.333 336.667 763.6 338.4C761.867 340.133 761 342.333 761 345V461.8ZM714.534 348.6C714.534 352.733 716.068 356.333 719.134 359.4C722.068 362.333 725.534 363.8 729.534 363.8C733.668 363.8 737.268 362.333 740.334 359.4C743.268 356.333 744.734 352.733 744.734 348.6C744.734 344.6 743.268 341.133 740.334 338.2C737.268 335.133 733.668 333.6 729.534 333.6C725.534 333.6 722.068 335.133 719.134 338.2C716.068 341.133 714.534 344.6 714.534 348.6ZM717.734 461.8C717.734 464.333 718.668 466.533 720.534 468.4C722.268 470.133 724.401 471 726.934 471H732.334C734.868 471 737.068 470.133 738.934 468.4C740.668 466.533 741.534 464.333 741.534 461.8V378.8C741.534 376.267 740.668 374.133 738.934 372.4C737.068 370.533 734.868 369.6 732.334 369.6H726.934C724.401 369.6 722.268 370.533 720.534 372.4C718.668 374.133 717.734 376.267 717.734 378.8V461.8ZM639.045 382.2C639.045 384.733 639.912 386.867 641.645 388.6C643.379 390.333 645.512 391.2 648.045 391.2H671.845C673.579 391.2 674.445 392.133 674.445 394V461.8C674.445 464.333 675.379 466.533 677.245 468.4C678.979 470.133 681.112 471 683.645 471H689.245C691.779 471 693.912 470.133 695.645 468.4C697.379 466.533 698.245 464.333 698.245 461.8V389.8C698.245 385.667 697.245 381.933 695.245 378.6C693.245 375.133 690.579 372.4 687.245 370.4C683.912 368.4 680.179 367.4 676.045 367.4H648.045C645.512 367.4 643.379 368.333 641.645 370.2C639.912 371.933 639.045 374.133 639.045 376.8V382.2ZM563.459 382.2C563.459 384.733 564.326 386.867 566.059 388.6C567.793 390.333 569.926 391.2 572.459 391.2H596.259C597.993 391.2 598.859 392.133 598.859 394V461.8C598.859 464.333 599.793 466.533 601.659 468.4C603.393 470.133 605.526 471 608.059 471H613.659C616.193 471 618.326 470.133 620.059 468.4C621.793 466.533 622.659 464.333 622.659 461.8V389.8C622.659 385.667 621.659 381.933 619.659 378.6C617.659 375.133 614.993 372.4 611.659 370.4C608.326 368.4 604.593 367.4 600.459 367.4H572.459C569.926 367.4 567.793 368.333 566.059 370.2C564.326 371.933 563.459 374.133 563.459 376.8V382.2Z" fill="white"/>
<path d="M226.6 382.2C226.6 384.733 227.467 386.867 229.2 388.6C230.933 390.333 233.067 391.2 235.6 391.2H259.4C261.133 391.2 262 392.133 262 394V461.8C262 464.333 262.933 466.533 264.8 468.4C266.533 470.133 268.667 471 271.2 471H276.8C279.333 471 281.467 470.133 283.2 468.4C284.933 466.533 285.8 464.333 285.8 461.8V389.8C285.8 385.667 284.8 381.933 282.8 378.6C280.8 375.133 278.133 372.4 274.8 370.4C271.467 368.4 267.733 367.4 263.6 367.4H235.6C233.067 367.4 230.933 368.333 229.2 370.2C227.467 371.933 226.6 374.133 226.6 376.8V382.2Z" fill="white"/>
<path fill-rule="evenodd" clip-rule="evenodd" d="M318.175 395C321.55 457.423 373.235 507 436.5 507C501.946 507 555 453.946 555 388.5C555 323.054 501.946 270 436.5 270C413.561 270 392.144 276.518 374 287.803V239.5V234H373.875C371.001 171.107 319.102 121 255.5 121C190.054 121 137 174.054 137 239.5C137 302.088 185.522 353.342 247 357.7V358H255.5H318V388.5V395H318.175ZM319 239C319 274.899 290.57 304 255.5 304C220.43 304 192 274.899 192 239C192 209.11 211.709 183.932 238.55 176.341L269.551 194.167L276.647 234.971L261 278L263.819 279.025L278.783 237.876L296 256L298.175 253.934L280.83 235.676L272.941 190.315L271.356 190.59L244.266 175.014C247.913 174.348 251.667 174 255.5 174C290.57 174 319 203.101 319 239Z" fill="white"/>
<path d="M126.36 197.78C126.36 204.02 124.8 209.74 121.68 214.94C118.733 220.14 114.66 224.3 109.46 227.42C104.26 230.54 98.4533 232.1 92.04 232.1H44.2C42.12 232.1 41.08 233.227 41.08 235.48V289.04C41.08 292.333 39.8667 295.193 37.44 297.62C35.1867 299.873 32.4133 301 29.12 301H22.1C18.8067 301 15.9467 299.873 13.52 297.62C11.2667 295.193 10.14 292.333 10.14 289.04V137.2C10.14 133.733 11.2667 130.873 13.52 128.62C15.9467 126.367 18.8067 125.24 22.1 125.24H92.04C98.4533 125.24 104.26 126.8 109.46 129.92C114.66 133.04 118.733 137.2 121.68 142.4C124.8 147.6 126.36 153.407 126.36 159.82V197.78ZM95.68 197.78V159.82C95.68 157.393 94.4667 156.18 92.04 156.18H44.2C42.12 156.18 41.08 157.307 41.08 159.56V197.78C41.08 200.033 42.12 201.16 44.2 201.16H92.04C94.4667 201.16 95.68 200.033 95.68 197.78Z" fill="white"/>
<path d="M455.4 233.6C455.4 239.867 453.2 245.2 448.8 249.6C444.533 253.867 439.333 256 433.2 256H405.4C399.267 256 394 253.867 389.6 249.6C385.2 245.2 383 239.867 383 233.6V174.8C383 170.667 384 166.933 386 163.6C388.133 160.133 390.867 157.4 394.2 155.4C397.533 153.4 401.267 152.4 405.4 152.4H433.2C437.333 152.4 441.067 153.4 444.4 155.4C447.733 157.4 450.4 160.133 452.4 163.6C454.4 166.933 455.4 170.667 455.4 174.8V185.2C455.4 187.733 454.533 189.933 452.8 191.8C451.067 193.533 448.933 194.4 446.4 194.4H440.8C438.267 194.4 436.133 193.533 434.4 191.8C432.667 189.933 431.8 187.733 431.8 185.2V179C431.8 178.2 431.467 177.533 430.8 177C430.267 176.467 429.667 176.2 429 176.2H409.6C408.933 176.2 408.267 176.467 407.6 177C407.067 177.533 406.8 178.2 406.8 179V229.8C406.8 230.467 407.067 231.067 407.6 231.6C408.267 232.133 408.933 232.4 409.6 232.4H429C429.667 232.4 430.267 232.133 430.8 231.6C431.467 231.067 431.8 230.467 431.8 229.8V223.6C431.8 221.067 432.667 218.933 434.4 217.2C436.133 215.333 438.267 214.4 440.8 214.4H446.4C448.933 214.4 451.067 215.333 452.8 217.2C454.533 218.933 455.4 221.067 455.4 223.6V233.6ZM543.272 250.4C541.805 254.133 539.072 256 535.072 256H527.672C525.005 256 522.672 255 520.672 253L497.272 227.2C497.139 226.933 496.805 226.867 496.272 227C495.872 227.133 495.672 227.467 495.672 228V246.8C495.672 249.333 494.739 251.533 492.872 253.4C491.139 255.133 489.005 256 486.472 256H480.872C478.339 256 476.139 255.133 474.272 253.4C472.539 251.533 471.672 249.333 471.672 246.8V130C471.672 127.333 472.539 125.133 474.272 123.4C476.139 121.667 478.339 120.8 480.872 120.8H486.472C489.005 120.8 491.139 121.667 492.872 123.4C494.739 125.133 495.672 127.333 495.672 130V180.6C495.672 181 495.872 181.333 496.272 181.6C496.805 181.733 497.139 181.6 497.272 181.2L518.472 158.2C520.205 156.2 522.405 155.2 525.072 155.2H532.472C536.339 155.2 539.139 157.067 540.872 160.8C541.539 162.4 541.739 164.133 541.472 166C541.205 167.733 540.472 169.2 539.272 170.4L510.272 202.4C509.739 202.933 509.472 203.6 509.472 204.4C509.472 205.067 509.739 205.6 510.272 206L541.672 240.6C542.872 241.933 543.605 243.533 543.872 245.4C544.272 247.133 544.072 248.8 543.272 250.4ZM630.791 196.6C630.791 200.6 629.791 204.333 627.791 207.8C625.791 211.133 623.124 213.867 619.791 216C616.457 218 612.724 219 608.591 219H584.991C584.324 219 583.657 219.267 582.991 219.8C582.457 220.2 582.191 220.733 582.191 221.4V229.8C582.191 230.467 582.457 231.067 582.991 231.6C583.657 232.133 584.324 232.4 584.991 232.4H608.591C611.124 232.4 613.257 233.267 614.991 235C616.857 236.733 617.791 238.933 617.791 241.6V246.8C617.791 249.333 616.857 251.533 614.991 253.4C613.257 255.133 611.124 256 608.591 256H580.791C574.657 256 569.391 253.867 564.991 249.6C560.591 245.2 558.391 239.867 558.391 233.6V174.8C558.391 170.667 559.391 166.933 561.391 163.6C563.524 160.267 566.257 157.6 569.591 155.6C572.924 153.467 576.657 152.4 580.791 152.4H608.591C612.724 152.4 616.457 153.467 619.791 155.6C623.124 157.6 625.791 160.267 627.791 163.6C629.791 166.933 630.791 170.667 630.791 174.8V196.6ZM607.191 192.6V179C607.191 178.2 606.857 177.533 606.191 177C605.657 176.467 605.057 176.2 604.391 176.2H584.991C584.324 176.2 583.657 176.467 582.991 177C582.457 177.533 582.191 178.2 582.191 179V192.6C582.191 193.133 582.457 193.667 582.991 194.2C583.657 194.733 584.324 195 584.991 195H604.391C605.057 195 605.657 194.733 606.191 194.2C606.857 193.667 607.191 193.133 607.191 192.6ZM706.463 246.8C706.463 249.333 705.596 251.533 703.863 253.4C702.129 255.133 699.996 256 697.463 256H669.463C663.329 256 658.063 253.867 653.663 249.6C649.396 245.2 647.263 239.867 647.263 233.6V130C647.263 127.333 648.129 125.133 649.863 123.4C651.596 121.667 653.729 120.8 656.263 120.8H661.863C664.396 120.8 666.529 121.667 668.263 123.4C670.129 125.133 671.063 127.333 671.063 130V150C671.063 151.6 671.929 152.4 673.663 152.4H697.463C699.996 152.4 702.129 153.333 703.863 155.2C705.596 156.933 706.463 159.133 706.463 161.8V167.2C706.463 169.467 705.596 171.6 703.863 173.6C701.863 175.333 699.729 176.2 697.463 176.2H673.663C671.929 176.2 671.063 177.133 671.063 179V229.8C671.063 231.533 671.929 232.4 673.663 232.4H697.463C699.996 232.4 702.129 233.267 703.863 235C705.596 236.733 706.463 238.933 706.463 241.6V246.8Z" fill="white"/>
<path d="M761 461.8C761 464.333 761.867 466.533 763.6 468.4C765.333 470.133 767.533 471 770.2 471H775.6C778.133 471 780.333 470.133 782.2 468.4C783.933 466.533 784.8 464.333 784.8 461.8V401.6C784.8 401.067 785.067 400.733 785.6 400.6C786 400.467 786.333 400.6 786.6 401L805.8 440.6C806.2 441.667 807.067 442.6 808.4 443.4C809.733 444.2 811 444.867 812.2 445.4C813.267 445.8 813.8 446 813.8 446C817.933 446 820.667 444.2 822 440.6L841.2 401C841.333 400.6 841.667 400.467 842.2 400.6C842.733 400.733 843 401.067 843 401.6V461.8C843 464.333 843.933 466.533 845.8 468.4C847.533 470.133 849.667 471 852.2 471H857.8C860.333 471 862.533 470.133 864.4 468.4C866.133 466.533 867 464.333 867 461.8V345C867 342.333 866.133 340.133 864.4 338.4C862.533 336.667 860.333 335.8 857.8 335.8H852C848.267 335.8 845.533 337.533 843.8 341C843.133 342.467 841.8 345.333 839.8 349.6C837.667 353.733 835.2 358.667 832.4 364.4C829.6 370.133 826.733 376.2 823.8 382.6C820.733 388.867 817.8 394.867 815 400.6C814.733 401.133 814.4 401.4 814 401.4C813.467 401.4 813.067 401.133 812.8 400.6L784.2 341C782.467 337.533 779.667 335.8 775.8 335.8H770.2C767.533 335.8 765.333 336.667 763.6 338.4C761.867 340.133 761 342.333 761 345V461.8ZM714.534 348.6C714.534 352.733 716.068 356.333 719.134 359.4C722.068 362.333 725.534 363.8 729.534 363.8C733.668 363.8 737.268 362.333 740.334 359.4C743.268 356.333 744.734 352.733 744.734 348.6C744.734 344.6 743.268 341.133 740.334 338.2C737.268 335.133 733.668 333.6 729.534 333.6C725.534 333.6 722.068 335.133 719.134 338.2C716.068 341.133 714.534 344.6 714.534 348.6ZM717.734 461.8C717.734 464.333 718.668 466.533 720.534 468.4C722.268 470.133 724.401 471 726.934 471H732.334C734.868 471 737.068 470.133 738.934 468.4C740.668 466.533 741.534 464.333 741.534 461.8V378.8C741.534 376.267 740.668 374.133 738.934 372.4C737.068 370.533 734.868 369.6 732.334 369.6H726.934C724.401 369.6 722.268 370.533 720.534 372.4C718.668 374.133 717.734 376.267 717.734 378.8V461.8ZM639.045 382.2C639.045 384.733 639.912 386.867 641.645 388.6C643.379 390.333 645.512 391.2 648.045 391.2H671.845C673.579 391.2 674.445 392.133 674.445 394V461.8C674.445 464.333 675.379 466.533 677.245 468.4C678.979 470.133 681.112 471 683.645 471H689.245C691.779 471 693.912 470.133 695.645 468.4C697.379 466.533 698.245 464.333 698.245 461.8V389.8C698.245 385.667 697.245 381.933 695.245 378.6C693.245 375.133 690.579 372.4 687.245 370.4C683.912 368.4 680.179 367.4 676.045 367.4H648.045C645.512 367.4 643.379 368.333 641.645 370.2C639.912 371.933 639.045 374.133 639.045 376.8V382.2ZM563.459 382.2C563.459 384.733 564.326 386.867 566.059 388.6C567.793 390.333 569.926 391.2 572.459 391.2H596.259C597.993 391.2 598.859 392.133 598.859 394V461.8C598.859 464.333 599.793 466.533 601.659 468.4C603.393 470.133 605.526 471 608.059 471H613.659C616.193 471 618.326 470.133 620.059 468.4C621.793 466.533 622.659 464.333 622.659 461.8V389.8C622.659 385.667 621.659 381.933 619.659 378.6C617.659 375.133 614.993 372.4 611.659 370.4C608.326 368.4 604.593 367.4 600.459 367.4H572.459C569.926 367.4 567.793 368.333 566.059 370.2C564.326 371.933 563.459 374.133 563.459 376.8V382.2Z" fill="white"/>
<path d="M226.6 382.2C226.6 384.733 227.467 386.867 229.2 388.6C230.933 390.333 233.067 391.2 235.6 391.2H259.4C261.133 391.2 262 392.133 262 394V461.8C262 464.333 262.933 466.533 264.8 468.4C266.533 470.133 268.667 471 271.2 471H276.8C279.333 471 281.467 470.133 283.2 468.4C284.933 466.533 285.8 464.333 285.8 461.8V389.8C285.8 385.667 284.8 381.933 282.8 378.6C280.8 375.133 278.133 372.4 274.8 370.4C271.467 368.4 267.733 367.4 263.6 367.4H235.6C233.067 367.4 230.933 368.333 229.2 370.2C227.467 371.933 226.6 374.133 226.6 376.8V382.2Z" fill="white"/>
<path fill-rule="evenodd" clip-rule="evenodd" d="M318.175 395C321.55 457.423 373.235 507 436.5 507C501.946 507 555 453.946 555 388.5C555 323.054 501.946 270 436.5 270C413.561 270 392.144 276.518 374 287.803V239.5V234H373.875C371.001 171.107 319.102 121 255.5 121C190.054 121 137 174.054 137 239.5C137 302.088 185.522 353.342 247 357.7V358H255.5H318V388.5V395H318.175ZM319 239C319 274.899 290.57 304 255.5 304C220.43 304 192 274.899 192 239C192 209.11 211.709 183.932 238.55 176.341L269.551 194.167L276.647 234.971L261 278L263.819 279.025L278.783 237.876L296 256L298.175 253.934L280.83 235.676L272.941 190.315L271.356 190.59L244.266 175.014C247.913 174.348 251.667 174 255.5 174C290.57 174 319 203.101 319 239Z" fill="white"/>
</svg>
