<svg width="48" height="36" viewBox="0 0 48 36" fill="none" xmlns="http://www.w3.org/2000/svg">
<path fill-rule="evenodd" clip-rule="evenodd" d="M0 4C0 1.79086 1.79086 0 4 0H44C46.2091 0 48 1.79086 48 4C48 6.20914 46.2091 8 44 8H4C1.79086 8 0 6.20914 0 4ZM0 18C0 15.7909 1.79086 14 4 14H44C46.2091 14 48 15.7909 48 18C48 20.2091 46.2091 22 44 22H4C1.79086 22 0 20.2091 0 18ZM4 28C1.79086 28 0 29.7909 0 32C0 34.2091 1.79086 36 4 36H44C46.2091 36 48 34.2091 48 32C48 29.7909 46.2091 28 44 28H4Z" fill="#D9D9D9"/>
</svg>
